<svg width="40" height="34" viewBox="0 0 40 34" fill="none" xmlns="http://www.w3.org/2000/svg">
<path d="M34.4429 23.0991H5.55755C4.20644 23.0991 3.11133 22.004 3.11133 20.6529V5.55731C3.11133 4.2062 4.20644 3.11108 5.55755 3.11108H34.4424C35.7935 3.11108 36.8887 4.2062 36.8887 5.55731V20.6524C36.8891 22.004 35.794 23.0991 34.4429 23.0991Z" fill="#AECDFB"/>
<path d="M24.02 15.1742H9.25597C9.01063 15.1742 8.81152 14.9751 8.81152 14.7298C8.81152 14.4845 9.01063 14.2853 9.25597 14.2853H24.02C24.2657 14.2853 24.4644 14.4845 24.4644 14.7298C24.4644 14.9751 24.2657 15.1742 24.02 15.1742Z" fill="#0C0C0C"/>
<path d="M23.008 11.0218H5.74132C5.49599 11.0218 5.29688 10.8227 5.29688 10.5773C5.29688 10.332 5.49599 10.1329 5.74132 10.1329H23.008C23.2538 10.1329 23.4524 10.332 23.4524 10.5773C23.4524 10.8227 23.2533 11.0218 23.008 11.0218Z" fill="#0C0C0C"/>
<path d="M11.272 26.2102H2.44178C1.09556 26.2102 0 25.1147 0 23.7684V2.44178C0 1.09556 1.09556 0 2.44178 0H37.5582C38.9044 0 40 1.09556 40 2.44178V4.15822C40 4.40355 39.8013 4.60266 39.5555 4.60266C39.3098 4.60266 39.1111 4.40355 39.1111 4.15822V2.44178C39.1111 1.58533 38.4146 0.888888 37.5582 0.888888H2.44178C1.58533 0.888888 0.888889 1.58533 0.888889 2.44178V23.768C0.888889 24.6244 1.58533 25.3209 2.44178 25.3209H11.272C11.5173 25.3209 11.7164 25.5195 11.7164 25.7653C11.7164 26.0111 11.5173 26.2102 11.272 26.2102Z" fill="#0C0C0C"/>
<path d="M20.3639 26.2102H16.4933C16.2479 26.2102 16.0488 26.0116 16.0488 25.7658C16.0488 25.52 16.2479 25.3214 16.4933 25.3214H20.3639C20.6097 25.3214 20.8084 25.52 20.8084 25.7658C20.8084 26.0116 20.6097 26.2102 20.3639 26.2102Z" fill="#0C0C0C"/>
<path d="M37.5581 26.2102H24.2342C23.9884 26.2102 23.7897 26.0115 23.7897 25.7657C23.7897 25.52 23.9884 25.3213 24.2342 25.3213H37.5581C38.4146 25.3213 39.111 24.6249 39.111 23.7684V21.9009H4.56749C4.32216 21.9009 4.12305 21.7022 4.12305 21.4564C4.12305 21.2106 4.32216 21.012 4.56749 21.012H39.5555C39.8013 21.012 39.9999 21.2106 39.9999 21.4564V23.7684C39.9999 25.1146 38.9044 26.2102 37.5581 26.2102Z" fill="#0C0C0C"/>
<path d="M29.1379 33.6338H11.59C11.3446 33.6338 11.1455 33.4351 11.1455 33.1893C11.1455 31.4134 12.5904 29.9685 14.3668 29.9685H14.6837L16.07 25.6302C16.1446 25.3969 16.3962 25.2662 16.6286 25.3427C16.8624 25.4174 16.9913 25.6671 16.9166 25.9014L15.4317 30.5485C15.3731 30.7325 15.2015 30.8574 15.0082 30.8574H14.3664C13.2322 30.8574 12.2846 31.6707 12.0766 32.7449H28.6504C28.4424 31.6707 27.4944 30.8574 26.3606 30.8574H25.7193C25.5259 30.8574 25.3548 30.7325 25.2962 30.5485L23.8113 25.9014C23.7362 25.6676 23.8655 25.4174 24.0988 25.3427C24.3339 25.2649 24.5828 25.3969 24.6575 25.6302L26.0437 29.9685H26.3606C28.1371 29.9685 29.5819 31.4134 29.5819 33.1893C29.5824 33.4351 29.3833 33.6338 29.1379 33.6338Z" fill="#0C0C0C"/>
<path d="M20.8144 23.7733H19.9122C19.6669 23.7733 19.4678 23.5747 19.4678 23.3289C19.4678 23.0831 19.6669 22.8845 19.9122 22.8845H20.8144C21.0602 22.8845 21.2589 23.0831 21.2589 23.3289C21.2589 23.5747 21.0602 23.7733 20.8144 23.7733Z" fill="#0C0C0C"/>
</svg>
