<svg width="11" height="11" viewBox="0 0 11 11" fill="none" xmlns="http://www.w3.org/2000/svg">
<path d="M8.68841 10.3731C8.62125 10.3731 8.55366 10.357 8.49156 10.3245L5.70599 8.85991L2.92 10.3245C2.77806 10.3997 2.60529 10.3874 2.47518 10.2924C2.34506 10.1978 2.28001 10.0377 2.30704 9.87925L2.8389 6.77686L0.585605 4.58017C0.470702 4.4678 0.428879 4.3001 0.478727 4.14717C0.528575 3.99425 0.660798 3.88272 0.819635 3.85949L3.93428 3.40706L5.32749 0.584742C5.46943 0.296216 5.94298 0.296216 6.08492 0.584742L7.47812 3.40706L10.5923 3.85949C10.7516 3.88272 10.8834 3.99425 10.9337 4.14717C10.9831 4.3001 10.9421 4.4678 10.8268 4.58017L8.57309 6.77686L9.10494 9.87925C9.13197 10.0377 9.06692 10.1978 8.93723 10.2924C8.86288 10.346 8.77586 10.3731 8.68841 10.3731ZM1.78829 4.57299L3.58788 6.32738C3.68715 6.42412 3.73278 6.56437 3.70912 6.70124L3.28415 9.17842L5.50913 8.00869C5.63291 7.94363 5.77907 7.94363 5.90285 8.00869L8.12741 9.17842L7.70286 6.70124C7.67921 6.56437 7.72483 6.42454 7.8241 6.32738L9.62412 4.57299L7.13679 4.21181C6.99908 4.19195 6.88037 4.10535 6.8187 3.98073L5.70599 1.72617L4.59329 3.97989C4.53161 4.10451 4.4129 4.19111 4.27519 4.21096L1.78829 4.57299Z" fill="#0C0C0C"/>
</svg>
